<svg width="111" height="111" viewBox="0 0 111 111" fill="none" xmlns="http://www.w3.org/2000/svg">
<path d="M74.1958 51.9973C73.1307 51.9973 72.2673 51.134 72.2673 50.0688C72.2673 42.8563 65.0099 39.1371 61.9135 39.1371C60.8484 39.1371 59.985 38.2737 59.985 37.2086C59.985 36.1435 60.8484 35.2802 61.9135 35.2802C66.8731 35.2802 76.1243 40.3593 76.1243 50.0689C76.1242 51.134 75.2609 51.9973 74.1958 51.9973Z" fill="#E60479"/>
<path d="M62.4257 110.321H48.5743C47.6276 110.321 46.8209 109.634 46.6703 108.699L44.7758 96.9381C40.9142 95.9422 37.2277 94.4137 33.7849 92.3819L24.1259 99.3609C23.3586 99.9149 22.3021 99.8309 21.6328 99.1613L11.8386 89.3668C11.1692 88.6975 11.0846 87.6412 11.6391 86.8738L18.6179 77.2152C16.5864 73.7736 15.0578 70.0864 14.0614 66.2243L2.3006 64.3298C1.36598 64.1791 0.678833 63.3725 0.678833 62.4257V48.5741C0.678833 47.6273 1.36598 46.8207 2.3006 46.6701L14.0614 44.7759C15.0578 40.9135 16.5864 37.2263 18.6178 33.7846L11.6391 24.1262C11.0846 23.3588 11.1692 22.3026 11.8386 21.633L21.6328 11.8383C22.3023 11.1689 23.3588 11.0844 24.1259 11.6388L33.7848 18.6176C37.2272 16.5856 40.9137 15.0575 44.7758 14.0614L46.6703 2.30085C46.8209 1.36617 47.6276 0.679077 48.5743 0.679077H62.4257C63.3724 0.679077 64.179 1.36623 64.3297 2.30085L66.2243 14.0615C70.0864 15.0575 73.7734 16.586 77.2152 18.618L86.8741 11.639C87.6411 11.0844 88.6971 11.1691 89.3673 11.8385L99.1616 21.633C99.8309 22.3024 99.9154 23.3587 99.3609 24.1261L92.3822 33.7848C94.4146 37.2277 95.9427 40.9141 96.9388 44.7758L108.699 46.67C109.634 46.8207 110.321 47.6273 110.321 48.574V62.4257C110.321 63.3724 109.634 64.179 108.699 64.3297L96.9385 66.2243C95.9422 70.0864 94.4138 73.7736 92.3822 77.2152L99.3609 86.8741C99.9154 87.6413 99.8309 88.6976 99.1616 89.3673L89.3673 99.1615C88.6979 99.8312 87.6414 99.9151 86.8741 99.3608L77.2146 92.3819C73.773 94.4134 70.0861 95.9419 66.2242 96.9378L64.3296 108.699C64.179 109.634 63.3724 110.321 62.4257 110.321ZM50.2171 106.464H60.7829L62.6202 95.0581C62.7456 94.2803 63.3316 93.6566 64.1002 93.4834C68.4224 92.5092 72.5183 90.8116 76.2738 88.4372C76.9392 88.0162 77.7945 88.0423 78.4337 88.5042L87.8015 95.2725L95.2725 87.8016L88.5044 78.4343C88.0431 77.7956 88.0164 76.9406 88.4375 76.2745C90.8115 72.5189 92.5094 68.4227 93.4845 64.1C93.6577 63.3314 94.2811 62.7456 95.0589 62.6203L106.464 60.783V50.2168L95.0589 48.3798C94.2811 48.2544 93.6574 47.6685 93.4841 46.8998C92.5102 42.5784 90.8123 38.4824 88.4375 34.7256C88.0164 34.0596 88.0431 33.2045 88.5044 32.5657L95.2725 23.1988L87.8016 15.7275L78.4343 22.4958C77.7953 22.9571 76.9401 22.9837 76.2742 22.5626C72.5187 20.1882 68.4228 18.4901 64.1003 17.5159C63.3316 17.3426 62.7457 16.7193 62.6203 15.9414L60.783 4.53614H50.217L48.3799 15.9411C48.2545 16.719 47.6687 17.3424 46.9 17.5157C42.5778 18.4901 38.4818 20.1881 34.7257 22.5622C34.0594 22.9833 33.2045 22.9565 32.5658 22.4953L23.1985 15.7272L15.7275 23.1988L22.4955 32.5655C22.957 33.2042 22.9835 34.0594 22.5625 34.7254C20.1886 38.4807 18.4906 42.5769 17.5157 46.9001C17.3422 47.6686 16.7189 48.2544 15.9411 48.3798L4.53584 50.2168V60.7829L15.9411 62.6202C16.7189 62.7456 17.3423 63.3313 17.5157 64.1C18.4904 68.4227 20.1884 72.5188 22.5625 76.2744C22.9835 76.9406 22.957 77.7956 22.4955 78.4343L15.7275 87.8012L23.1985 95.2725L32.5657 88.5042C33.2042 88.0426 34.0595 88.0159 34.7255 88.4372C38.4824 90.8116 42.5784 92.5094 46.8999 93.484C47.6685 93.6572 48.2544 94.2806 48.3798 95.0584L50.2171 106.464Z" fill="#E60479"/>
<path d="M55.5 85.16C39.1453 85.16 25.8397 71.8543 25.8397 55.4995C25.8397 39.1448 39.1453 25.8392 55.5 25.8392C71.8551 25.8392 85.1609 39.1448 85.1609 55.4995C85.1609 71.8543 71.8551 85.16 55.5 85.16ZM55.5 29.6962C41.272 29.6962 29.6967 41.2714 29.6967 55.4995C29.6967 69.7276 41.272 81.3031 55.5 81.3031C69.7283 81.3031 81.3039 69.7276 81.3039 55.4995C81.3039 41.2714 69.7283 29.6962 55.5 29.6962Z" fill="#E60479"/>
</svg>
