<svg width="111" height="111" viewBox="0 0 111 111" fill="none" xmlns="http://www.w3.org/2000/svg">
<g clip-path="url(#clip0_38_198)">
<path d="M23.8053 61.2216C21.5837 60.7037 19.3434 60.4413 17.147 60.4413C8.47358 60.4413 1.6913 64.5355 0.270066 70.6295C0.152776 71.1322 0.240096 71.6614 0.512786 72.0998C0.785476 72.5384 1.22109 72.8505 1.72404 72.9678L20.0702 77.2445C20.2163 77.2785 20.3646 77.2953 20.5122 77.2953C20.8726 77.2953 21.2292 77.1951 21.5404 77.0017C21.9789 76.729 22.2911 76.2934 22.4083 75.7903L25.2593 63.5596C25.5033 62.5126 24.8523 61.4658 23.8053 61.2216ZM19.0581 73.0104L4.78943 69.6841C6.67384 66.4204 11.3441 64.3351 17.147 64.3351C18.4203 64.3351 19.7129 64.4375 21.0091 64.6409L19.0581 73.0104Z" fill="#E60479"/>
<path d="M47.44 85.7403L35.2092 88.5914C34.7065 88.7087 34.2706 89.0208 33.9979 89.4594C33.7252 89.8977 33.6379 90.4266 33.7551 90.9296L38.0324 109.276C38.1497 109.778 38.4619 110.214 38.9004 110.487C39.2115 110.68 39.568 110.78 39.9284 110.78C40.0762 110.78 40.2245 110.764 40.3706 110.73C44.292 109.815 47.4084 106.76 49.1467 102.127C50.7822 97.7676 51.0063 92.4645 49.7779 87.1946C49.5338 86.1475 48.4879 85.4964 47.44 85.7403ZM41.3146 106.205L37.9894 91.9416L46.3563 89.9911C47.4661 97.1777 45.3508 103.845 41.3146 106.205Z" fill="#E60479"/>
<path d="M107.914 3.12682L107.873 3.0855C105.913 1.18376 103.274 0.219543 100.028 0.219543C91.2905 0.219543 78.801 7.32231 66.6038 18.7637C57.003 16.8065 47.5453 15.8507 37.7242 15.8507C28.8839 15.8507 20.6584 16.617 13.7782 17.3663C12.9219 17.4598 12.2286 18.1045 12.0738 18.9519C11.9191 19.7993 12.3396 20.6478 13.1076 21.0376L48.6016 39.0586C41.8074 47.737 36.3443 55.6344 32.5933 62.2257C26.6595 72.6527 25.3299 79.2753 28.5277 82.4716C29.6586 83.603 31.2407 84.1769 33.2302 84.1769C42.3195 84.1769 59.868 71.8202 71.9364 62.3901L89.9613 97.8916C90.2976 98.5535 90.9739 98.9571 91.6969 98.9571C91.8126 98.9571 91.93 98.9468 92.0473 98.9253C92.8947 98.7708 93.5395 98.0774 93.6329 97.221C95.2147 82.6985 96.5291 65.4654 92.232 44.3809C103.236 32.6187 110.305 20.4948 110.757 11.8569C110.948 8.20451 109.992 5.26708 107.914 3.12682ZM50.9287 35.8732L20.7965 20.5745C26.0021 20.1068 31.7292 19.7445 37.7242 19.7445C46.3871 19.7445 54.7602 20.5071 63.2087 22.0684C60.522 24.7814 57.8679 27.6946 55.291 30.7796C54.4539 31.785 53.6331 32.7824 52.8264 33.7724L50.9287 35.8732ZM90.4287 90.2113L75.1262 60.0712L77.2556 58.1476C78.3418 57.2639 79.3382 56.4425 80.2226 55.7065C83.2999 53.1357 86.2132 50.4781 88.9297 47.781C91.9587 64.1423 91.5649 77.7635 90.4287 90.2113ZM106.869 11.6538C106.447 19.7219 98.9933 31.8396 87.7895 43.3864L74.7213 55.1901C55.6351 70.7358 39.8985 80.2833 33.2302 80.2833C32.3114 80.2833 31.6558 80.0934 31.281 79.7183C30.838 79.2755 28.9822 76.4438 35.9774 64.1518C40.3619 56.4473 47.1743 46.8744 55.7763 36.3154L67.7407 23.0695C79.6251 11.5393 91.9718 4.11336 100.028 4.11336C102.213 4.11336 103.934 4.7008 105.141 5.85945C106.418 7.19059 107 9.13987 106.869 11.6538Z" fill="#E60479"/>
</g>
<defs>
<clipPath id="clip0_38_198">
<rect width="111" height="111" fill="white"/>
</clipPath>
</defs>
</svg>
