<svg width="111" height="111" viewBox="0 0 111 111" fill="none" xmlns="http://www.w3.org/2000/svg">
<path d="M60.4421 87.9949H49.2729V80.687C44.9937 80.3073 40.539 79.0822 37.5167 77.4123L36.2223 76.6965L39.4498 64.1102L41.6082 65.2921C43.6973 66.4361 47.9728 68.3556 53.1334 68.3556C55.8014 68.3556 58.4931 67.5097 58.4931 65.6196C58.4931 64.3523 57.6787 62.9049 51.7721 60.9091C44.8862 58.5923 36.9797 54.7329 36.9797 45.3805C36.9797 38.102 41.7902 32.5139 49.6479 30.5029V23.005H60.817V29.7043C65.5563 30.0875 68.6667 31.318 70.663 32.2572L72.1057 32.9361L68.8555 45.1792L66.7013 44.1459C64.8309 43.248 61.7002 41.7451 56.8063 41.7451C55.1128 41.7451 52.2714 42.0517 52.2714 44.1062C52.2714 45.6606 56.4068 47.3681 60.01 48.6822C69.6582 52.0588 73.7846 56.8131 73.7846 64.5701C73.7846 68.4331 72.4294 71.9377 69.8646 74.7052C67.5467 77.207 64.3114 78.9927 60.4421 79.9201V87.9949ZM53.096 84.1719H56.6191V76.7526L58.2057 76.4789C65.457 75.2288 69.9616 70.6656 69.9616 64.57C69.9616 59.5555 68.0507 55.5466 58.7237 52.2822C53.0911 50.2281 48.4484 48.2016 48.4484 44.1062C48.4484 41.1165 50.6442 37.922 56.8063 37.922C61.0149 37.922 64.1568 38.885 66.3328 39.7826L67.5798 35.0868C65.6214 34.3182 62.8213 33.5422 58.8485 33.4238L56.9941 33.3684V26.828H53.471V33.6249L51.9105 33.9166C44.9552 35.2167 40.8026 39.5023 40.8026 45.3805C40.8026 50.851 44.4486 54.4116 52.9935 57.2861C57.8366 58.9224 62.3161 61.0643 62.3161 65.6196C62.3161 69.6042 58.7118 72.1786 53.1334 72.1786C48.5836 72.1786 44.6472 70.9103 41.9576 69.722L40.6792 74.7078C43.1373 75.7808 46.9495 76.8485 51.2415 76.9765L53.0959 77.032V84.1719H53.096Z" fill="#E60479"/>
<path d="M55.157 106.166C27.2195 106.166 4.49069 83.4375 4.49069 55.5002C4.49069 27.5624 27.2195 4.83358 55.157 4.83358C83.0947 4.83358 105.824 27.5624 105.824 55.5002C105.824 64.4046 103.512 72.7782 99.4613 80.0572L103.26 81.0748C107.333 73.4438 109.647 64.7375 109.647 55.5002C109.647 25.4547 85.2029 1.01056 55.157 1.01056C25.1115 1.01056 0.667725 25.4547 0.667725 55.5002C0.667725 85.5458 25.1115 109.989 55.157 109.989C64.7023 109.989 73.6806 107.519 81.4908 103.189L80.4695 99.3775C73.0171 103.693 64.3706 106.166 55.157 106.166Z" fill="#E60479"/>
<path d="M102.465 109.989C101.976 109.989 101.487 109.803 101.114 109.43L91.843 100.159L88.8611 106.356C88.5145 107.077 87.7528 107.506 86.9603 107.431C86.1645 107.356 85.499 106.794 85.292 106.022L78.4359 80.4337C78.2594 79.774 78.4481 79.07 78.9308 78.5872C79.414 78.104 80.1174 77.9158 80.7772 78.0924L106.365 84.949C107.137 85.1558 107.699 85.8215 107.774 86.6173C107.848 87.413 107.42 88.1714 106.699 88.5181L100.502 91.5005L109.773 100.77C110.131 101.129 110.332 101.615 110.332 102.122C110.332 102.629 110.131 103.115 109.773 103.474L103.817 109.43C103.444 109.803 102.954 109.989 102.465 109.989ZM91.2893 94.9907C91.7917 94.9907 92.2792 95.1891 92.6408 95.5507L102.465 105.375L105.718 102.122L95.8937 92.2984C95.4558 91.8601 95.2569 91.237 95.3608 90.6259C95.4649 90.0152 95.8579 89.493 96.4163 89.2242L100.398 87.3079L82.9857 82.6423L87.6508 100.054L89.5666 96.0733C89.8353 95.5149 90.3581 95.1218 90.9687 95.0179C91.0755 94.9997 91.1827 94.9907 91.2893 94.9907Z" fill="#E60479"/>
<path d="M70.3185 18.0402C77.1777 18.0402 90.5289 25.5411 90.5289 39.2911C90.5289 40.3469 91.3843 41.2026 92.4403 41.2026C93.4958 41.2026 94.3518 40.3469 94.3518 39.2911C94.3518 32.1339 91.1886 25.4984 85.445 20.6066C80.8881 16.7252 74.9504 14.2172 70.3184 14.2172C69.2629 14.2172 68.4069 15.0729 68.4069 16.1287C68.4069 17.1845 69.263 18.0402 70.3185 18.0402Z" fill="#E60479"/>
</svg>
