<svg width="97" height="97" viewBox="0 0 97 97" fill="none" xmlns="http://www.w3.org/2000/svg">
<circle cx="48.5" cy="48.5" r="48.5" fill="url(#paint0_linear_99_184)"/>
<g clip-path="url(#clip0_99_184)">
<path fill-rule="evenodd" clip-rule="evenodd" d="M42.675 42.7548C39.502 45.9278 39.502 51.0722 42.675 54.2452C45.848 57.4183 50.9925 57.4183 54.1655 54.2452C57.3385 51.0722 57.3385 45.9278 54.1655 42.7548C50.9925 39.5817 45.848 39.5817 42.675 42.7548ZM38.8449 58.0754C33.5565 52.7871 33.5565 44.2129 38.8449 38.9246C44.1332 33.6362 52.7073 33.6362 57.9957 38.9246C63.284 44.2129 63.284 52.7871 57.9957 58.0754C52.7073 63.3638 44.1332 63.3638 38.8449 58.0754Z" fill="white"/>
<path fill-rule="evenodd" clip-rule="evenodd" d="M31.1845 31.2643C21.6655 40.7833 21.6655 56.2167 31.1845 65.7357C40.7036 75.2548 56.137 75.2548 65.656 65.7357C75.175 56.2167 75.175 40.7833 65.656 31.2643C56.137 21.7452 40.7036 21.7452 31.1845 31.2643ZM27.3544 69.5659C15.72 57.9315 15.72 39.0685 27.3544 27.4341C38.9888 15.7997 57.8518 15.7997 69.4862 27.4341C81.1205 39.0685 81.1205 57.9315 69.4862 69.5659C57.8518 81.2003 38.9888 81.2003 27.3544 69.5659Z" fill="white"/>
<path fill-rule="evenodd" clip-rule="evenodd" d="M27.6266 27.6263C28.6843 26.5686 30.3991 26.5686 31.4567 27.6263L42.2901 38.4596C43.3478 39.5173 43.3478 41.2321 42.2901 42.2898C41.2324 43.3474 39.5176 43.3474 38.4599 42.2898L27.6266 31.4564C26.5689 30.3988 26.5689 28.6839 27.6266 27.6263Z" fill="white"/>
<path fill-rule="evenodd" clip-rule="evenodd" d="M69.3734 27.6263C70.4311 28.6839 70.4311 30.3988 69.3734 31.4564L58.5401 42.2898C57.4824 43.3474 55.7676 43.3474 54.7099 42.2898C53.6523 41.2321 53.6523 39.5173 54.7099 38.4596L65.5433 27.6263C66.6009 26.5686 68.3157 26.5686 69.3734 27.6263Z" fill="white"/>
<path fill-rule="evenodd" clip-rule="evenodd" d="M54.7099 54.7102C55.7676 53.6526 57.4824 53.6526 58.5401 54.7102L69.3734 65.5436C70.4311 66.6012 70.4311 68.3161 69.3734 69.3737C68.3157 70.4314 66.6009 70.4314 65.5433 69.3737L54.7099 58.5404C53.6523 57.4827 53.6523 55.7679 54.7099 54.7102Z" fill="white"/>
<path fill-rule="evenodd" clip-rule="evenodd" d="M42.2901 54.7102C43.3478 55.7679 43.3478 57.4827 42.2901 58.5404L31.4567 69.3737C30.3991 70.4314 28.6843 70.4314 27.6266 69.3737C26.5689 68.3161 26.5689 66.6012 27.6266 65.5436L38.4599 54.7102C39.5176 53.6526 41.2324 53.6526 42.2901 54.7102Z" fill="white"/>
</g>
<defs>
<linearGradient id="paint0_linear_99_184" x1="48.5" y1="0" x2="48.5" y2="97" gradientUnits="userSpaceOnUse">
<stop stop-color="#E60479"/>
<stop offset="1" stop-color="#0434AC"/>
</linearGradient>
<clipPath id="clip0_99_184">
<rect width="65" height="65" fill="white" transform="translate(16 16)"/>
</clipPath>
</defs>
</svg>
