<svg width="101" height="111" viewBox="0 0 101 111" fill="none" xmlns="http://www.w3.org/2000/svg">
<path d="M85.5536 2.00214V13.6085C79.4641 14.5488 74.7869 19.8258 74.7869 26.1747C74.7869 32.5236 79.4641 37.8002 85.5536 38.741V108.998C85.5536 110.074 86.4259 110.947 87.5026 110.947C88.579 110.947 89.4519 110.074 89.4519 108.998V38.741C95.5413 37.8001 100.218 32.5236 100.218 26.1747C100.218 19.8258 95.5413 14.5488 89.4519 13.6085V2.00214C89.4519 0.925808 88.579 0.0529785 87.5026 0.0529785C86.4258 0.0529169 85.5536 0.925808 85.5536 2.00214ZM96.3201 26.1747C96.3201 30.3668 93.3784 33.8822 89.4519 34.7725C88.8242 34.9144 88.1727 34.9922 87.5026 34.9922C86.8326 34.9922 86.1811 34.9144 85.5536 34.7725C81.6264 33.8821 78.6852 30.3668 78.6852 26.1747C78.6852 21.9821 81.6264 18.4667 85.5536 17.5769C86.1812 17.4344 86.8326 17.3572 87.5026 17.3572C88.1727 17.3572 88.8242 17.4344 89.4519 17.5769C93.3784 18.4667 96.3201 21.9821 96.3201 26.1747Z" fill="#E60479"/>
<path d="M15.4471 108.998V38.741C21.5371 37.8001 26.2142 32.5236 26.2142 26.1747C26.2142 19.8258 21.5371 14.5488 15.4471 13.6085V2.00214C15.4471 0.925808 14.5747 0.0529785 13.4979 0.0529785C12.4216 0.0529785 11.5487 0.92587 11.5487 2.00214V13.6085C5.45922 14.5488 0.782051 19.8258 0.782051 26.1747C0.782051 32.5236 5.45922 37.8002 11.5487 38.741V108.998C11.5487 110.074 12.4216 110.947 13.4978 110.947C14.5747 110.947 15.4471 110.074 15.4471 108.998ZM4.68043 26.1747C4.68043 21.9821 7.62212 18.4667 11.5487 17.5769C12.1763 17.4344 12.8284 17.3572 13.4978 17.3572C14.1678 17.3572 14.8194 17.4344 15.447 17.5769C19.3742 18.4667 22.3159 21.9821 22.3159 26.1747C22.3159 30.3668 19.3742 33.8822 15.447 34.7725C14.8194 34.9144 14.1678 34.9922 13.4978 34.9922C12.8284 34.9922 12.1763 34.9144 11.5487 34.7725C7.62212 33.8822 4.68043 30.3668 4.68043 26.1747Z" fill="#E60479"/>
<path d="M52.4497 108.998V87.5365C58.5392 86.5956 63.2163 81.3191 63.2163 74.9702C63.2163 68.6213 58.5392 63.3443 52.4497 62.404V2.00214C52.4497 0.925808 51.5769 0.0529785 50.5006 0.0529785C49.4237 0.0529785 48.5514 0.92587 48.5514 2.00214V62.4039C42.4614 63.3442 37.7842 68.6213 37.7842 74.9702C37.7842 81.319 42.4614 86.5956 48.5514 87.5364V108.998C48.5514 110.074 49.4237 110.947 50.5006 110.947C51.5769 110.947 52.4497 110.074 52.4497 108.998ZM41.6826 74.9702C41.6826 70.7777 44.6243 67.2621 48.5514 66.3723C49.179 66.2299 49.8305 66.1526 50.5006 66.1526C51.1706 66.1526 51.8221 66.2299 52.4497 66.3723C56.3764 67.2621 59.318 70.7777 59.318 74.9702C59.318 79.1622 56.3764 82.6776 52.4497 83.568C51.8221 83.71 51.1706 83.7877 50.5006 83.7877C49.8305 83.7877 49.179 83.71 48.5514 83.568C44.6242 82.6777 41.6826 79.1622 41.6826 74.9702Z" fill="#E60479"/>
</svg>
