<svg width="97" height="97" viewBox="0 0 97 97" fill="none" xmlns="http://www.w3.org/2000/svg">
<path d="M48.5 0C21.7159 0 0 21.7159 0 48.5C0 75.2841 21.7159 97 48.5 97C75.2841 97 97 75.2841 97 48.5C97 21.7159 75.2841 0 48.5 0ZM72.3216 33.2265L64.3595 70.7332C63.7735 73.3926 62.1891 74.0393 59.9783 72.7864L47.8533 63.8543L42.0091 69.4884C41.4432 70.2159 40.5662 70.6807 39.5841 70.6807C39.576 70.6807 39.572 70.6807 39.5639 70.6807L40.4247 58.3374L62.8964 38.0402C63.8664 37.1793 62.6782 36.6903 61.3889 37.5511L33.6267 55.0354L21.6633 51.3009C19.0767 50.4804 19.0039 48.7142 22.209 47.4451L68.9549 29.4274C71.1293 28.6352 73.0208 29.9447 72.3175 33.2306L72.3216 33.2265Z" fill="url(#paint0_linear_99_161)"/>
<defs>
<linearGradient id="paint0_linear_99_161" x1="48.5" y1="0" x2="48.5" y2="97" gradientUnits="userSpaceOnUse">
<stop stop-color="#E60479"/>
<stop offset="1" stop-color="#0434AC"/>
</linearGradient>
</defs>
</svg>
