<svg width="17" height="14" viewBox="0 0 17 14" fill="none" xmlns="http://www.w3.org/2000/svg">
<path fill-rule="evenodd" clip-rule="evenodd" d="M2.35559 1.77299C2.41802 1.75795 2.48311 1.75 2.55 1.75H14.45C14.5169 1.75 14.582 1.75795 14.6444 1.77299L8.5 6.43778L2.35559 1.77299ZM1.7 3.44972V11.375C1.7 11.8582 2.08056 12.25 2.55 12.25H14.45C14.9194 12.25 15.3 11.8582 15.3 11.375V3.44972L9.00451 8.2292C8.70455 8.45693 8.29545 8.45693 7.99549 8.2292L1.7 3.44972ZM2.55 0C1.14167 0 0 1.17525 0 2.625V11.375C0 12.8247 1.14167 14 2.55 14H14.45C15.8583 14 17 12.8247 17 11.375V2.625C17 1.17525 15.8583 0 14.45 0H2.55Z" fill="#949394"/>
</svg>
