<svg width="27" height="27" viewBox="0 0 27 27" fill="none" xmlns="http://www.w3.org/2000/svg">
<path d="M13.4997 26.9997C11.7262 27.0046 9.96939 26.6578 8.33086 25.9792C6.69234 25.3006 5.20469 24.3037 3.95405 23.0463C1.42239 20.5146 0.00012207 17.0809 0.00012207 13.5006C0.00012207 9.92026 1.42239 6.48658 3.95405 3.9549C6.48573 1.42324 9.91941 0.000976562 13.4997 0.000976562C17.08 0.000976562 20.5137 1.42324 23.0454 3.9549C25.5769 6.48666 26.9991 9.92031 26.9991 13.5006C26.9991 17.0809 25.5769 20.5145 23.0454 23.0463C21.7947 24.3037 20.3071 25.3005 18.6686 25.9791C17.0301 26.6577 15.2732 27.0046 13.4997 26.9997ZM8.41617 21.4555C9.93297 22.4281 11.6979 22.9429 13.4997 22.9384C18.7039 22.9384 22.9382 18.7042 22.9382 13.5C22.9429 11.6982 22.4282 9.93328 21.4559 8.41642L8.41617 21.4555ZM13.4997 4.06152C8.29554 4.06152 4.06127 8.29579 4.06127 13.5C4.05667 15.3019 4.57129 17.067 5.54357 18.5841L18.5815 5.54625C17.0653 4.57357 15.3011 4.05811 13.4997 4.06152Z" fill="#E60479"/>
</svg>
