<svg width="111" height="111" viewBox="0 0 111 111" fill="none" xmlns="http://www.w3.org/2000/svg">
<path d="M100.389 23.6801C99.6415 22.6279 98.8567 21.6036 98.0389 20.6081C87.9357 8.31299 72.6184 0.457153 55.5002 0.457153C38.3818 0.457153 23.0645 8.31299 12.961 20.6081C12.1427 21.6036 11.3584 22.6278 10.6102 23.6801C4.21928 32.6703 0.457367 43.6541 0.457367 55.4998C0.457367 67.4135 4.26337 78.4552 10.7216 87.4734C11.4736 88.523 12.26 89.5462 13.082 90.5385C23.186 102.75 38.4497 110.543 55.5002 110.543C72.5504 110.543 87.8144 102.75 97.9181 90.5385C98.7399 89.5462 99.5266 88.523 100.278 87.4734C106.736 78.4552 110.543 67.4135 110.543 55.4998C110.543 43.6541 106.781 32.6703 100.389 23.6801ZM94.8841 22.8592C94.0079 23.4227 93.0885 23.972 92.1219 24.5037C89.2518 26.0824 86.0975 27.45 82.724 28.5973C81.4076 24.4145 79.7751 20.52 77.8469 17.0143C75.4166 12.5946 72.6314 9.00014 69.5976 6.30143C79.6193 9.17768 88.3916 15.0392 94.8841 22.8592ZM83.8509 39.6566C84.4062 39.6566 84.9321 39.7812 85.4068 39.9994C86.6963 40.5916 87.5961 41.8923 87.5961 43.402C87.5961 44.5716 87.0566 45.617 86.2139 46.3042C85.5689 46.8301 84.7463 47.147 83.8509 47.147C83.3292 47.147 82.8327 47.0397 82.3812 46.846C81.0447 46.2735 80.1051 44.9457 80.1051 43.4019C80.1051 42.1979 80.6788 41.1275 81.5642 40.4419C82.1976 39.9516 82.9896 39.6566 83.8509 39.6566ZM57.434 4.45525C63.7856 5.30884 69.77 10.3536 74.4579 18.8781C76.263 22.1598 77.7935 25.8118 79.0316 29.7399C72.4018 31.5962 65.0672 32.6459 57.434 32.7976V4.45525ZM57.434 36.6657C65.4217 36.5124 73.1175 35.4101 80.0951 33.4557C80.3468 34.4327 80.5809 35.425 80.7982 36.4301C78.1162 37.6087 76.2379 40.2897 76.2379 43.4021C76.2379 47.1959 79.0273 50.3491 82.6629 50.9212C82.7065 51.8382 82.7372 52.761 82.7544 53.6876H62.893C62.2307 50.9838 60.1202 48.843 57.434 48.1367V36.6657ZM80.0362 77.7706C73.0742 75.8257 65.3989 74.7299 57.434 74.577V62.863C60.0396 62.1783 62.1023 60.1438 62.8288 57.5552H82.7494C82.599 64.6641 81.6703 71.5124 80.0362 77.7706ZM80.8284 91.8063C80.8281 93.8717 79.148 95.5518 77.0832 95.5518C77.0384 95.5518 76.9954 95.5465 76.951 95.5449C75.5233 95.4946 74.2988 94.6439 73.7113 93.4265C73.4741 92.9356 73.3374 92.3874 73.3374 91.8063C73.3374 89.9597 74.6816 88.4255 76.4416 88.1198C76.6504 88.0832 76.864 88.0609 77.0829 88.0609C78.2896 88.0609 79.3616 88.6367 80.0472 89.5255C80.535 90.1586 80.8284 90.9478 80.8284 91.8063ZM53.5665 4.45525V32.7976C45.9328 32.6459 38.5983 31.5962 31.9681 29.7404C32.2616 28.8096 32.5715 27.8943 32.8973 26.9963C33.0539 27.0059 33.2109 27.0122 33.3696 27.0122C37.5672 27.0122 40.9826 23.5968 40.9826 19.3992C40.9826 17.5612 40.3278 15.8737 39.2398 14.5569C43.4323 8.65074 48.3765 5.15258 53.5665 4.45525ZM30.9052 33.4557C37.8825 35.4107 45.5788 36.5124 53.5665 36.6657V48.1367C50.8797 48.843 48.7697 50.9837 48.1069 53.6876H28.2455C28.3782 46.577 29.2888 39.724 30.9052 33.4557ZM29.6242 19.3992C29.6242 17.3338 31.3043 15.6537 33.3697 15.6537C33.5522 15.6537 33.73 15.6712 33.9056 15.6965C35.3172 15.9002 36.4746 16.8905 36.9183 18.21C37.044 18.5841 37.1151 18.9832 37.1151 19.3992C37.1151 21.0621 36.0251 22.4739 34.5223 22.9611C34.1588 23.0794 33.7719 23.1448 33.3697 23.1448C32.329 23.1448 31.3871 22.7175 30.7078 22.0304C30.0386 21.3532 29.6242 20.424 29.6242 19.3992ZM41.4029 6.30149C39.5328 7.96458 37.7572 9.96733 36.1021 12.2954C35.253 11.9677 34.3323 11.7862 33.3696 11.7862C29.172 11.7862 25.7565 15.2014 25.7565 19.3993C25.7565 22.0702 27.1405 24.4226 29.2271 25.7817C28.8944 26.7045 28.5766 27.6433 28.2762 28.5974C24.9027 27.4501 21.7484 26.0826 18.878 24.5038C17.9116 23.9721 16.992 23.4229 16.1158 22.8593C22.6082 15.0392 31.3807 9.17768 41.4029 6.30149ZM13.7518 25.9345C14.7844 26.6095 15.8702 27.2633 17.0143 27.8927C20.1288 29.6056 23.5512 31.0841 27.2086 32.3158C25.4818 38.9503 24.5127 46.1913 24.3774 53.6876H4.35834C4.71921 43.3755 8.14467 33.8287 13.7518 25.9345ZM28.6684 64.6832C29.6789 65.3545 30.347 66.5018 30.347 67.8041C30.347 68.7592 29.9845 69.6296 29.3933 70.2918C28.7072 71.0614 27.7116 71.549 26.6026 71.549H26.602C26.2772 71.549 25.9636 71.5028 25.6622 71.4248C24.0511 71.0061 22.8566 69.5436 22.8566 67.8041C22.8566 66.4031 23.6303 65.181 24.7722 64.5388C25.3135 64.2342 25.937 64.0581 26.602 64.0581C27.3656 64.0581 28.0756 64.2894 28.6684 64.6832ZM4.3658 57.5552H24.3827C24.4023 58.5385 24.4369 59.5182 24.4852 60.4924C21.3144 61.4116 18.989 64.3399 18.989 67.8041C18.989 71.9433 22.3115 75.3199 26.4301 75.4118C26.6864 76.5935 26.9655 77.7594 27.2674 78.9068C23.5878 80.1427 20.1459 81.6281 17.0149 83.3501C15.9142 83.9551 14.8678 84.5834 13.8707 85.2308C8.23754 77.3657 4.7744 67.847 4.3658 57.5552ZM16.2486 88.297C17.0849 87.7637 17.9605 87.2437 18.8781 86.7389C21.7686 85.1491 24.9468 83.7736 28.3463 82.6215C29.6507 86.7209 31.2586 90.5417 33.1532 93.9853C35.5841 98.4052 38.3691 102.001 41.4035 104.699C31.4491 101.842 22.7275 96.0385 16.2486 88.297ZM53.5665 106.545C47.2143 105.691 41.2299 100.646 36.542 92.1221C34.7711 88.9025 33.2651 85.3258 32.0398 81.4827C38.6509 79.6381 45.9603 78.5964 53.5665 78.4445V106.545ZM53.5665 74.577C45.6011 74.7299 37.9255 75.8257 30.9636 77.7706C30.6849 76.7024 30.4271 75.6166 30.1898 74.516C32.5832 73.2312 34.2144 70.7042 34.2144 67.8041C34.2144 64.2082 31.7086 61.1887 28.3521 60.3959C28.3038 59.4544 28.2709 58.5066 28.2502 57.5552H48.1711C48.8981 60.1438 50.9609 62.1784 53.5665 62.863V74.577ZM53.5665 58.7015C53.0889 58.4117 52.6797 58.0206 52.3725 57.5552C51.983 56.9645 51.7548 56.2593 51.7548 55.4998C51.7548 54.8428 51.9262 54.2251 52.225 53.6875C52.5428 53.1149 53.0077 52.6368 53.5665 52.2982C54.1317 51.9554 54.7923 51.7543 55.5002 51.7543C56.2082 51.7543 56.8683 51.9554 57.434 52.2982C57.9928 52.6368 58.4577 53.1149 58.7755 53.6875C59.0744 54.2251 59.2457 54.8428 59.2457 55.4998C59.2457 56.2593 59.017 56.9645 58.6275 57.5552C58.3207 58.0206 57.9116 58.4117 57.434 58.7015C56.8683 59.0443 56.2082 59.2453 55.5002 59.2453C54.7923 59.2453 54.1317 59.0443 53.5665 58.7015ZM57.434 106.545V78.4445C65.0401 78.5964 72.3493 79.638 78.9604 81.4827C78.6609 82.4215 78.3462 83.3464 78.0135 84.2528C77.7081 84.2146 77.3979 84.1933 77.0824 84.1933C72.885 84.1933 69.4699 87.6087 69.4699 91.8063C69.4699 93.764 70.2132 95.5513 71.4321 96.9019C67.3106 102.531 62.4887 105.865 57.434 106.545ZM69.5965 104.7C71.3801 103.113 73.0766 101.215 74.6665 99.0241C75.4262 99.2787 76.2384 99.4194 77.0832 99.4194C81.2803 99.4194 84.6957 96.0039 84.6959 91.8063C84.6957 89.3005 83.4783 87.0744 81.604 85.6861C81.9739 84.6842 82.3228 83.6611 82.6534 82.6215C86.0534 83.7736 89.2316 85.1491 92.1219 86.739C93.0394 87.2437 93.9153 87.7637 94.7517 88.2976C88.2724 96.039 79.5512 101.842 69.5965 104.7ZM97.1293 85.2308C96.1322 84.5834 95.0857 83.9551 93.9856 83.3501C90.8547 81.6281 87.4124 80.1427 83.7325 78.9068C85.4768 72.2835 86.4644 65.0488 86.6174 57.5552H106.634C106.661 56.8738 106.675 56.1882 106.675 55.4998C106.675 55.5003 106.675 55.5003 106.675 55.5003C106.675 56.1882 106.661 56.8733 106.634 57.5552C106.226 67.847 102.762 77.3657 97.1293 85.2308ZM106.642 53.6875H86.6225C86.6034 52.6304 86.5679 51.5781 86.5157 50.5322C89.4027 49.449 91.4636 46.6625 91.4636 43.402C91.4636 39.465 88.4592 36.2162 84.6229 35.8277C84.3687 34.6401 84.0918 33.4689 83.7917 32.3158C87.4491 31.0841 90.8711 29.6056 93.9854 27.8926C95.1298 27.2632 96.2155 26.6089 97.2485 25.9344C102.855 33.8287 106.281 43.375 106.642 53.6875Z" fill="#E60479"/>
</svg>
