<svg width="97" height="97" viewBox="0 0 97 97" fill="none" xmlns="http://www.w3.org/2000/svg">
<g clip-path="url(#clip0_99_162)">
<path d="M42.0396 57.8404L57.9158 48.5193L42.0396 39.1982V57.8404Z" fill="url(#paint0_linear_99_162)"/>
<path d="M48.5 0C21.7113 0 0 21.7113 0 48.5C0 75.2887 21.7113 97 48.5 97C75.2887 97 97 75.2887 97 48.5C97 21.7113 75.2887 0 48.5 0ZM72.75 57.177C72.75 65.5318 64.3951 65.5318 64.3951 65.5318H32.6049C24.25 65.5318 24.25 57.177 24.25 57.177V39.842C24.25 31.4871 32.6049 31.4871 32.6049 31.4871H64.3951C72.75 31.4871 72.75 39.842 72.75 39.842V57.177Z" fill="url(#paint1_linear_99_162)"/>
</g>
<defs>
<linearGradient id="paint0_linear_99_162" x1="49.9777" y1="39.1982" x2="49.9777" y2="57.8404" gradientUnits="userSpaceOnUse">
<stop stop-color="#E60479"/>
<stop offset="1" stop-color="#0434AC"/>
</linearGradient>
<linearGradient id="paint1_linear_99_162" x1="48.5" y1="0" x2="48.5" y2="97" gradientUnits="userSpaceOnUse">
<stop stop-color="#E60479"/>
<stop offset="1" stop-color="#0434AC"/>
</linearGradient>
<clipPath id="clip0_99_162">
<rect width="97" height="97" fill="white"/>
</clipPath>
</defs>
</svg>
