<svg width="34" height="34" viewBox="0 0 34 34" fill="none" xmlns="http://www.w3.org/2000/svg">
<path fill-rule="evenodd" clip-rule="evenodd" d="M28.9 18.619H23.8C20.9831 18.619 18.7 20.7934 18.7 23.4762V28.3333C18.7 31.0161 20.9831 33.1905 23.8 33.1905H28.9C31.7169 33.1905 34 31.0161 34 28.3333V23.4762C34 20.7934 31.7169 18.619 28.9 18.619ZM10.2 18.619H5.1C2.2831 18.619 0 20.7934 0 23.4762V28.3333C0 31.0161 2.2831 33.1905 5.1 33.1905H10.2C13.0169 33.1905 15.3 31.0161 15.3 28.3333V23.4762C15.3 20.7934 13.0169 18.619 10.2 18.619ZM28.9 0.809509H23.8C20.9831 0.809509 18.7 2.98389 18.7 5.66665V10.5238C18.7 13.2066 20.9831 15.3809 23.8 15.3809H28.9C31.7169 15.3809 34 13.2066 34 10.5238V5.66665C34 2.98389 31.7169 0.809509 28.9 0.809509ZM15.3 5.66665V10.5238C15.3 13.2066 13.0169 15.3809 10.2 15.3809H5.1C2.2831 15.3809 0 13.2066 0 10.5238V5.66665C0 2.98389 2.2831 0.809509 5.1 0.809509H10.2C13.0169 0.809509 15.3 2.98389 15.3 5.66665Z" fill="white"/>
</svg>
